Format : MPEG-4
Format profile : Base Media
Codec ID : isom
File size : 251 MiB
Duration : 9mn 3s
Overall bit rate : 3 875 Kbps
Writing application : Lavf53.4.0

Video
ID : 1
Format : AVC
Format/Info : Advanced Video Codec
Format profile : High@L5.1
Format settings, CABAC : Yes
Format settings, ReFrames : 16 frames
Codec ID : avc1
Codec ID/Info : Advanced Video Coding
Duration : 9mn 3s
Bit rate mode : Variable
Bit rate : 3 868 Kbps
Width : 1 920 pixels
Height : 1 080 pixels
Display aspect ratio : 16:9
Frame rate mode : Constant
Frame rate : 23.976 fps
Color space : YUV
Chroma subsampling : 4:2:0
Bit depth : 8 bits
Scan type : Progressive
Bits/(Pixel*Frame) : 0.078
Stream size : 246 MiB (98%)

Audio
ID : 2
Format : AAC
Format/Info : Advanced Audio Codec
Format profile : LC
Codec ID : 40
Duration : 9mn 3s
Bit rate mode : Constant
Bit rate : 72.0 Kbps
Channel(s) : 2 channels
Channel positions : Front: L R
Sampling rate : 48.0 KHz
Compression mode : Lossy
Stream size : 4.66 MiB (2%)
Language : English